<svg version="1.1" id="Layer_1" xmlns="http://www.w3.org/2000/svg" xmlns:xlink="http://www.w3.org/1999/xlink" x="0px" y="0px"
	 width="75px" viewBox="0 0 600 600" enable-background="new 0 0 600 600" xml:space="preserve">
<path fill="#092032" opacity="1.000000" stroke="none" 
	d="
M317.000000,601.000000 
	C211.333328,601.000000 106.166664,601.000000 1.000000,601.000000 
	C1.000000,401.000000 1.000000,201.000000 1.000000,1.000000 
	C201.000000,1.000000 401.000000,1.000000 601.000000,1.000000 
	C601.000000,201.000000 601.000000,401.000000 601.000000,601.000000 
	C506.500000,601.000000 412.000000,601.000000 317.000000,601.000000 
M331.626648,495.365875 
	C331.626648,495.365875 331.760986,495.626038 331.562927,496.069489 
	C331.562927,496.069489 331.905884,496.407013 331.905884,496.407013 
	C331.905884,496.407013 332.337341,496.190979 332.586792,496.283661 
	C332.586792,496.283661 332.756989,496.488220 332.598389,497.128387 
	C333.159790,497.331726 333.721222,497.535065 334.162354,497.806274 
	C334.162354,497.806274 334.215607,497.678833 334.380920,498.211609 
	C334.717285,498.249115 335.053650,498.286621 335.473602,498.407043 
	C335.473602,498.407043 335.590820,498.418030 335.582367,499.172058 
	C336.517029,499.410126 337.451721,499.648193 339.120209,499.829865 
	C340.311432,500.075531 341.502625,500.321167 342.059479,500.868805 
	C341.754395,501.152618 341.449280,501.436432 341.144196,501.720245 
	C341.294830,501.786133 341.445465,501.909637 341.596100,501.909637 
	C349.811249,501.910461 358.026794,501.931793 366.240631,501.823517 
	C366.790985,501.816284 367.328308,500.820312 368.298126,499.818268 
	C368.193787,497.127014 368.089417,494.435760 367.728699,491.002869 
	C366.382599,490.666321 365.046478,490.088715 363.688812,490.032654 
	C355.373596,489.689240 347.053528,489.463989 338.884796,489.160492 
	C338.884796,489.160492 338.867004,489.314178 338.651062,488.685486 
	C338.056671,488.484955 337.462311,488.284393 336.959442,488.040710 
	C336.959442,488.040710 336.916199,488.132172 336.951294,487.468262 
	C336.541290,487.016418 336.131317,486.564575 335.864197,486.099670 
	C335.864197,486.099670 335.828918,486.238739 335.871307,485.547516 
	C335.442810,485.105072 335.014313,484.662628 334.731934,484.196472 
	C334.731934,484.196472 334.661133,484.326447 334.871429,483.356628 
	C334.913452,476.280212 335.102753,469.199127 334.879547,462.131073 
	C334.832001,460.625336 333.283844,459.166931 332.485504,457.595367 
	C332.485504,457.595367 332.377289,457.588379 332.365143,456.804199 
	C330.104279,457.066162 327.843445,457.328156 325.150360,457.553955 
	C325.150360,457.553955 325.576172,457.636475 324.795685,457.574951 
	C324.224609,458.536896 323.165039,459.496735 323.160980,460.461060 
	C323.132202,467.250366 322.942139,474.078064 323.609131,480.813751 
	C323.914490,483.897125 326.042786,486.799927 327.222626,489.827667 
	C327.222626,489.827667 327.281525,489.712799 327.166718,490.379425 
	C327.500977,490.898865 327.835205,491.418304 328.062683,491.948517 
	C328.062683,491.948517 328.075134,491.841888 328.283722,492.349609 
	C328.594116,492.524506 328.904541,492.699402 329.115997,492.892670 
	C329.115997,492.892670 329.154602,492.799744 329.136688,493.459045 
	C329.588501,493.723755 330.040283,493.988464 330.692749,494.414917 
	C330.692749,494.414917 330.789337,494.653870 330.579956,495.089386 
	C330.579956,495.089386 330.917603,495.430206 330.917603,495.430206 
	C330.917603,495.430206 331.360901,495.242920 331.626648,495.365875 
M456.268066,479.654602 
	C456.165527,479.428589 456.062988,479.202576 456.227814,478.904999 
	C456.227814,478.904999 456.033600,478.712677 456.033600,478.712677 
	C456.033600,478.712677 455.905090,478.957825 455.352539,478.686737 
	C455.259949,478.503662 455.167358,478.320557 455.298462,477.871552 
	C455.298462,477.871552 455.059692,477.622040 455.059692,477.622040 
	C455.059692,477.622040 454.759979,477.797028 454.387543,477.626526 
	C454.387543,477.626526 454.227448,477.249512 454.373474,476.867279 
	C454.373474,476.867279 454.094025,476.570862 454.094025,476.570862 
	C454.094025,476.570862 453.699371,476.675415 453.439575,476.557953 
	C453.439575,476.557953 453.328949,476.295197 453.423798,475.850800 
	C453.275330,475.502869 453.024475,475.397339 452.580139,475.445099 
	C452.580139,475.445099 452.492828,475.352295 452.451477,474.786682 
	C452.141602,474.605988 451.831696,474.425293 450.979767,473.840363 
	C446.355194,468.500458 441.777222,463.118622 437.052521,457.868866 
	C436.393005,457.136017 435.012024,457.052460 433.790955,456.445923 
	C433.526093,456.272949 433.282379,456.311676 432.234283,456.756134 
	C430.824860,456.834656 429.415436,456.913208 427.775543,456.710938 
	C427.657043,456.709686 427.538574,456.708466 427.420074,456.707214 
	C427.505035,456.922852 427.590027,457.138489 427.587311,457.462555 
	C427.587311,457.462555 427.521637,457.585571 426.707489,457.501434 
	C426.140015,458.577515 425.090027,459.648712 425.079102,460.730408 
	C424.959595,472.517883 424.934021,484.308105 425.111176,496.094116 
	C425.128296,497.232208 426.677155,498.347290 426.991150,499.772095 
	C427.166260,499.676758 427.341370,499.581421 427.513763,500.215210 
	C429.680267,500.467834 431.846771,500.720459 434.404114,500.622772 
	C434.331421,500.304565 434.258728,499.986328 434.272339,499.496674 
	C434.272339,499.496674 434.378693,499.336853 435.203827,499.328400 
	C435.471954,497.779510 435.942535,496.234375 435.971344,494.681061 
	C436.068604,489.442596 436.118774,484.197876 435.962250,478.962311 
	C435.885895,476.408447 436.583801,474.848785 438.978943,474.946106 
	C438.978943,474.946106 439.304688,474.661316 439.322327,475.227600 
	C439.574554,475.493042 439.826782,475.758484 440.429321,476.589844 
	C447.247253,483.651520 454.095428,490.684387 460.869751,497.787689 
	C464.010956,501.081421 467.417603,501.079712 471.894043,498.765503 
	C472.257172,498.084198 472.933014,497.404694 472.936920,496.721375 
	C473.004913,484.803467 473.034790,472.884613 472.913300,460.967621 
	C472.903168,459.974365 471.750824,458.992706 470.607300,457.586060 
	C468.320312,457.714630 466.033325,457.843231 463.016327,458.224487 
	C462.714081,459.770813 462.182190,461.312592 462.151215,462.864319 
	C462.043304,468.272644 462.265869,473.692200 461.999847,479.089569 
	C461.931854,480.468292 460.525635,481.781036 459.320892,482.978455 
	C459.069092,482.794342 458.926605,482.547180 458.842041,481.638336 
	C458.430939,481.398315 458.019836,481.158295 457.125183,480.566406 
	C457.083679,480.371429 457.042175,480.176483 457.226257,479.885956 
	C457.226257,479.885956 456.942993,479.968994 456.268066,479.654602 
M384.305878,499.690613 
	C384.478729,499.373718 384.651550,499.056854 384.861572,498.873199 
	C384.861572,498.873199 384.724274,498.856323 385.348816,498.582367 
	C385.525330,497.950134 385.701843,497.317902 385.920288,495.959045 
	C389.662750,487.201874 393.405212,478.444702 397.532654,468.786713 
	C399.181793,470.972595 399.939087,471.668518 400.320831,472.530731 
	C403.580841,479.893921 406.795929,487.277313 409.977875,494.674683 
	C412.679779,500.955994 413.224396,501.246307 420.743958,499.360962 
	C417.773193,491.942963 414.834106,484.604156 411.951660,476.443420 
	C409.623383,470.531311 407.308777,464.613647 404.919067,458.726471 
	C404.819183,458.480408 404.018768,458.518677 404.001099,458.103302 
	C403.844940,458.204132 403.688812,458.304932 403.559814,457.840027 
	C403.253662,457.663940 402.947510,457.487854 402.765259,457.263702 
	C402.765259,457.263702 402.711761,457.385376 402.640961,456.798828 
	C401.783173,456.717926 400.925415,456.637024 399.256653,456.755615 
	C398.150269,456.694305 397.043915,456.632996 395.423309,456.242798 
	C394.814911,456.662750 394.206482,457.082703 393.497711,457.494324 
	C393.497711,457.494324 393.486298,457.594360 392.755280,457.476166 
	C392.216797,458.710724 391.678314,459.945282 391.109955,461.089111 
	C391.109955,461.089111 391.203918,461.106415 390.519440,461.324371 
	C385.140930,473.331848 379.733917,485.326904 374.488007,497.392029 
	C374.277344,497.876587 375.592896,499.024750 376.095123,499.907867 
	C376.095123,499.907867 376.137207,499.804749 376.129944,500.454559 
	C377.090302,500.478119 378.050629,500.501709 379.785736,500.297546 
	C380.861908,500.261749 381.938110,500.225952 383.275635,500.443481 
	C383.469513,500.225189 383.663422,500.006927 383.877441,499.892883 
	C383.877441,499.892883 383.774689,499.866272 384.305878,499.690613 
M315.224579,478.553162 
	C315.451904,478.134033 315.679260,477.714905 316.074158,476.659851 
	C320.738708,468.239685 318.896423,461.227570 310.567841,455.933258 
	C310.001617,455.640533 309.437042,455.096222 308.868896,455.092438 
	C298.899231,455.026001 288.928558,454.972015 278.960022,455.086426 
	C277.855988,455.099091 276.763885,456.154572 275.450989,456.924805 
	C275.111023,457.132233 274.771057,457.339691 273.793945,458.219666 
	C273.536163,458.986053 273.057190,459.751434 273.053711,460.518982 
	C273.000214,472.321686 272.967102,484.125061 273.067505,495.927063 
	C273.077423,497.096802 273.990417,498.258881 274.969391,499.542084 
	C277.725342,500.541321 280.461243,501.446564 283.005402,497.736969 
	C283.334961,493.234344 283.520996,488.713989 284.075256,484.239166 
	C284.258820,482.757233 285.390320,481.392731 286.510864,480.036682 
	C286.834625,480.081512 287.033173,480.263214 287.500061,481.337738 
	C295.185089,481.532654 302.869873,481.792175 310.555542,481.822021 
	C311.319946,481.824982 312.089844,480.428253 312.871490,479.838440 
	C312.871490,479.838440 312.720093,479.793488 313.423218,479.832458 
	C313.813416,479.375031 314.203644,478.917572 314.756927,478.654449 
	C314.756927,478.654449 314.516388,478.735077 315.224579,478.553162 
M53.671532,467.650635 
	C53.671532,467.650635 53.300777,467.834869 53.122234,468.774750 
	C53.079700,477.650848 52.977924,486.527466 53.058636,495.402435 
	C53.070717,496.730896 53.938450,498.051605 54.911098,499.505371 
	C61.011723,501.245178 62.034916,500.531067 62.043930,494.493805 
	C62.052387,488.829193 62.004314,483.164246 62.052822,477.500031 
	C62.164024,464.514587 60.291332,465.467896 74.095711,465.462402 
	C80.690781,465.459778 81.934830,463.179779 78.571793,455.933319 
	C78.005180,455.640381 77.439888,455.094666 76.871750,455.091675 
	C64.555870,455.026886 52.239269,454.978241 39.924297,455.090759 
	C38.938377,455.099762 37.963352,456.300751 36.679787,457.646027 
	C36.829266,460.173462 36.978745,462.700867 37.429817,466.058746 
	C42.822292,466.453064 48.214767,466.847382 53.671532,467.650635 
M554.819092,498.884460 
	C554.819092,498.884460 554.610107,498.887573 555.372498,498.491669 
	C555.508667,487.900787 555.644836,477.309906 555.837585,466.842163 
	C555.837585,466.842163 555.717407,466.779510 556.685791,466.932617 
	C560.420715,466.956604 564.164917,467.138245 567.885742,466.921204 
	C569.234863,466.842438 570.528259,465.810364 572.144348,464.589081 
	C572.970642,461.555054 574.308716,458.402222 570.778259,456.029480 
	C570.759766,455.764893 570.782471,455.486877 570.702881,455.242188 
	C570.670166,455.141418 570.417480,455.058228 570.264771,455.057983 
	C557.767761,455.038116 545.270508,454.992554 532.774292,455.089630 
	C531.889587,455.096466 531.013000,456.158264 529.690613,457.186249 
	C527.362610,464.225586 528.200500,465.466583 535.283813,465.468048 
	C536.944702,465.468384 538.605591,465.454041 540.266418,465.466431 
	C546.299377,465.511536 546.887817,466.059998 546.910950,471.926300 
	C546.939819,479.233978 546.918579,486.541901 546.918396,493.849701 
	C546.918274,500.831055 546.952576,500.860809 554.287537,500.199524 
	C554.443359,499.694855 554.599121,499.190155 554.819092,498.884460 
M129.767792,491.127625 
	C129.258163,490.774048 128.750397,490.114777 128.238663,490.111694 
	C115.669533,490.035767 103.099724,489.994995 90.531082,490.088165 
	C89.689270,490.094421 88.855667,491.208954 87.551437,492.462677 
	C87.690552,495.015106 87.829666,497.567505 88.232674,500.876770 
	C88.909973,501.245392 89.585495,501.931641 90.264832,501.935425 
	C102.530617,502.003876 114.797287,502.033752 127.062172,501.911407 
	C128.055740,501.901489 129.037674,500.727753 130.411530,499.406586 
	C130.284805,496.899506 130.158096,494.392426 129.767792,491.127625 
M520.771179,491.139069 
	C520.099670,490.765411 519.429932,490.069489 518.756409,490.065826 
	C506.351227,489.997986 493.945343,489.978088 481.540802,490.087189 
	C480.695648,490.094635 479.860138,491.201599 478.523956,492.445160 
	C478.687408,495.019501 478.850861,497.593811 479.264587,500.919983 
	C479.947693,501.275024 480.629211,501.936066 481.314178,501.939697 
	C493.570221,502.004944 505.827148,502.034485 518.082214,501.910370 
	C519.068909,501.900391 520.043640,500.716095 521.376953,499.377777 
	C521.261047,496.885406 521.145142,494.393005 520.771179,491.139069 
M88.300011,465.986755 
	C88.826828,466.309631 89.352242,466.911743 89.880676,466.914429 
	C102.423653,466.977966 114.967247,467.012115 127.509575,466.910034 
	C128.356537,466.903168 129.194412,465.780701 130.446686,464.494110 
	C130.305359,461.970978 130.164047,459.447876 129.775711,456.158417 
	C129.103989,455.778595 128.434158,455.071442 127.760269,455.067566 
	C115.487831,454.996735 103.214470,454.966461 90.942894,455.088287 
	C89.947083,455.098175 88.962814,456.271759 87.561966,457.595764 
	C87.719475,460.148102 87.876984,462.700470 88.300011,465.986755 
M479.299072,465.988556 
	C479.826630,466.310974 480.352783,466.912292 480.881958,466.914917 
	C493.430969,466.977905 505.980621,467.011780 518.528931,466.907990 
	C519.369934,466.901001 520.201599,465.763245 521.425842,464.463348 
	C521.290955,461.954407 521.156006,459.445435 520.780579,456.166168 
	C520.110962,455.783966 519.443237,455.072388 518.771423,455.068451 
	C506.498047,454.996979 494.223785,454.966705 481.951233,455.087433 
	C480.951843,455.097260 479.963806,456.261719 478.533844,457.569733 
	C478.698517,460.131805 478.863190,462.693848 479.299072,465.988556 
M87.769348,472.384613 
	C87.875114,475.062744 87.980881,477.740906 88.463211,481.202026 
	C88.888680,481.433960 89.313072,481.866425 89.739769,481.868683 
	C102.214569,481.935425 114.689789,481.993195 127.164185,481.920502 
	C128.083755,481.915131 128.997559,480.919586 130.307114,479.785309 
	C130.144913,477.140564 129.982697,474.495789 129.580902,470.989380 
	C129.028564,470.680176 128.477600,470.103851 127.923668,470.100983 
	C115.515694,470.036194 103.107117,469.999359 90.699776,470.098267 
	C89.853813,470.105011 89.016685,471.219452 87.769348,472.384613 
M478.758636,472.378998 
	C478.865723,475.062622 478.972839,477.746246 479.463348,481.209625 
	C479.890289,481.439636 480.316223,481.868530 480.744354,481.870789 
	C493.223877,481.936279 505.703857,481.993469 518.182922,481.918549 
	C519.098511,481.913055 520.008057,480.904053 521.285095,479.751801 
	C521.126892,477.122772 520.968628,474.493713 520.579224,470.999817 
	C520.028870,470.687592 519.479919,470.105682 518.927979,470.102783 
	C506.519104,470.037140 494.109650,470.000000 481.701416,470.098267 
	C480.854614,470.104980 480.016541,471.217010 478.758636,472.378998 
M154.268906,500.943390 
	C154.257416,501.203217 154.204269,501.471680 154.255203,501.718597 
	C154.275299,501.815857 154.527512,501.927124 154.674347,501.927582 
	C162.742783,501.952637 170.811310,501.975555 178.879349,501.923157 
	C179.057083,501.922028 179.229141,501.048523 180.033997,500.159882 
	C183.150223,497.025940 182.871201,494.081635 179.957153,490.813873 
	C171.640488,490.850800 163.323822,490.887726 154.282486,491.004547 
	C149.829041,489.835114 148.276291,486.390930 146.735321,482.426605 
	C143.849319,475.001862 148.021729,467.176971 156.584396,466.606415 
	C163.820099,466.731354 171.055939,466.916168 178.291367,466.901703 
	C179.148666,466.899994 180.003799,465.807770 181.164642,464.595154 
	C181.110703,462.062897 181.056763,459.530670 180.788696,456.215332 
	C180.133926,455.818573 179.482864,455.083862 178.823807,455.076599 
	C171.075928,454.991394 163.325958,454.961304 155.579300,455.086700 
	C154.724075,455.100555 153.885895,456.167969 152.365921,457.060577 
	C141.743515,461.100494 137.007507,468.984772 137.824249,481.268860 
	C138.478958,491.115692 144.691833,498.147949 154.268906,500.943390 
M232.029694,457.495026 
	C225.754852,455.929352 225.072906,456.433075 225.064667,462.640320 
	C225.062897,463.966888 224.997360,465.297119 225.072571,466.619324 
	C225.292770,470.490082 223.373322,471.957397 219.653183,471.888000 
	C213.685669,471.776642 207.710800,471.730438 201.746201,471.903412 
	C197.641739,472.022461 195.982635,470.163483 196.163406,466.241241 
	C196.224411,464.917511 196.174942,463.588531 196.170471,462.261963 
	C196.150238,456.261108 194.250534,455.213684 187.817139,458.454254 
	C187.558090,459.041077 187.075577,459.626862 187.072922,460.214813 
	C187.019104,472.192444 186.985336,484.170593 187.078690,496.147644 
	C187.085907,497.072906 188.063980,497.990601 189.004654,499.302002 
	C194.175140,501.609863 196.117188,500.564972 196.166519,495.415741 
	C196.196762,492.259033 196.146301,489.101440 196.181824,485.944824 
	C196.220474,482.509003 197.638428,481.319763 201.377548,481.451843 
	C207.768402,481.677582 214.194580,480.784363 220.596954,480.892212 
	C222.074097,480.917084 224.482239,482.889069 224.776062,484.312958 
	C225.434860,487.505493 225.052887,490.916595 225.061172,494.238800 
	C225.078018,500.994202 226.462540,501.958557 233.237564,498.776245 
	C233.485199,498.006226 233.945328,497.237122 233.948669,496.466034 
	C233.999939,484.682098 234.030228,472.897552 233.938278,461.114166 
	C233.928909,459.912781 233.101898,458.717804 232.029694,457.495026 
M342.017273,232.716171 
	C343.656189,233.012741 345.286285,233.375671 346.935425,233.595673 
	C365.005951,236.006027 380.489166,219.731003 377.128265,201.877686 
	C374.074005,185.653366 360.182251,174.178345 343.484283,174.083710 
	C328.734375,174.000107 316.181671,168.837585 306.134766,157.902161 
	C302.639832,154.098129 299.226898,150.216660 295.666046,146.475693 
	C285.557678,135.856018 280.900940,123.573929 282.721588,108.706215 
	C284.296631,95.844574 274.767975,85.652946 263.367279,87.105087 
	C246.689362,89.229385 239.210312,95.839691 235.107986,112.097313 
	C234.700974,113.710289 234.279251,115.324524 233.982819,116.959656 
	C231.729828,129.387527 226.290787,140.339920 218.197128,149.907837 
	C213.145294,155.879837 207.665482,161.497665 202.252426,167.154556 
	C192.217407,177.641602 180.004776,184.480545 165.546997,185.576050 
	C149.463257,186.794754 141.579193,196.265030 137.429169,210.336212 
	C134.322693,220.869080 139.188507,229.586548 149.717361,232.985260 
	C165.218628,237.989075 183.211258,226.323212 185.795685,208.919708 
	C187.718521,195.971298 193.703735,185.412384 202.312607,176.008957 
	C208.838074,168.881180 215.057693,161.421341 222.076797,154.813995 
	C227.709625,149.511612 233.828339,144.288040 240.626282,140.747787 
	C256.997711,132.221848 274.047546,135.616302 286.665405,148.915649 
	C292.628174,155.200455 298.434021,161.638458 304.184906,168.118927 
	C312.645569,177.652939 317.513397,188.783493 318.153625,201.562973 
	C318.933380,217.128601 326.584229,227.511703 342.017273,232.716171 
M454.325806,301.772797 
	C456.549500,296.794434 459.450195,291.998383 460.850464,286.798309 
	C463.461395,277.102356 458.256378,269.292572 448.495087,266.925568 
	C432.558990,263.061249 414.786957,275.107117 412.048431,292.219757 
	C410.100464,304.392365 404.676392,314.533966 396.440796,323.405853 
	C389.299316,331.099091 382.485016,339.143829 374.854950,346.319611 
	C369.466400,351.387329 363.418091,356.177917 356.855316,359.488586 
	C340.770813,367.602661 324.251984,364.331879 311.550049,351.538513 
	C305.327881,345.271545 299.109009,338.996887 293.049500,332.573975 
	C284.981079,324.021698 280.465881,313.813568 279.920074,302.039886 
	C279.166779,285.790894 268.136719,273.263733 251.974411,271.231598 
	C240.525604,269.792114 230.623352,273.259003 224.290649,283.306122 
	C218.056290,293.197144 220.027817,303.213043 226.239105,312.385010 
	C232.809219,322.086884 242.161697,327.494202 254.008453,327.615753 
	C270.255493,327.782471 283.856293,333.474823 294.617035,345.780121 
	C297.137299,348.662140 299.872681,351.359192 302.558258,354.093048 
	C312.465698,364.178711 317.131409,375.912750 315.348938,390.314087 
	C313.592682,404.503540 324.010406,414.005615 338.118225,411.841614 
	C353.818726,409.433319 363.096191,400.194305 364.331299,384.379059 
	C365.143616,373.977417 368.797180,364.835083 374.835632,356.792694 
	C380.713837,348.963776 387.520050,341.813904 394.119751,334.548370 
	C404.702057,322.898468 417.813934,315.936462 433.468414,313.742188 
	C441.691956,312.589478 448.668854,308.982361 454.325806,301.772797 
M249.656143,234.172882 
	C258.580658,233.754242 266.084412,230.171555 272.186493,223.746933 
	C281.726746,213.702423 283.583344,199.189514 277.007294,187.219376 
	C270.944183,176.182907 259.279236,170.664322 247.123840,173.081772 
	C232.552353,175.979736 220.012054,189.817596 219.333801,205.196335 
	C218.172928,231.518372 201.872772,247.407578 181.936020,260.749847 
	C175.294037,265.194885 167.257477,265.826843 159.276657,265.425568 
	C156.630859,265.292511 153.916077,265.216827 151.319580,265.643219 
	C139.364334,267.606476 133.630630,276.151978 136.119873,288.010803 
	C139.496994,304.099365 147.210770,311.746918 163.713409,314.717102 
	C175.116440,316.769409 185.894165,320.702759 194.253937,328.542206 
	C204.405518,338.061920 214.172302,348.239471 222.551880,359.308594 
	C227.592575,365.967133 230.320724,374.659027 232.930984,382.807800 
	C236.741180,394.702576 243.525604,403.858093 254.421310,409.780914 
	C261.523743,413.641754 269.038086,415.099365 275.999146,409.535950 
	C283.060547,403.892365 285.052704,396.161835 283.309387,387.534973 
	C280.652679,374.388275 269.053772,364.171600 254.428894,362.193085 
	C245.605087,360.999329 237.047989,358.387604 230.835541,352.299622 
	C218.396713,340.109955 206.863968,326.993622 195.026352,314.195862 
	C193.923523,313.003540 193.260971,311.382477 192.485214,309.912354 
	C182.619553,291.216431 185.560867,273.645996 200.936859,259.217072 
	C203.608673,256.709808 206.411224,254.312531 208.853088,251.594635 
	C219.532059,239.708527 232.920364,234.174728 249.656143,234.172882 
M356.019012,99.500404 
	C352.084351,96.188011 348.459290,92.381401 344.143280,89.677719 
	C337.480225,85.503731 330.098297,83.760643 323.028870,88.753418 
	C315.654419,93.961662 313.177856,101.661613 314.392639,110.319603 
	C316.382507,124.501930 328.015472,135.738724 342.965668,137.719193 
	C354.927490,139.303802 364.836090,144.613174 373.034454,153.112152 
	C381.591553,161.983078 389.920044,171.089844 398.013885,180.384857 
	C401.258942,184.111511 404.048401,188.393234 406.291748,192.805405 
	C414.552887,209.053192 412.350983,224.597046 400.133667,238.009064 
	C395.197662,243.427719 390.013580,248.619537 385.007080,253.975067 
	C375.138885,264.531311 362.850433,269.427582 348.565582,270.176178 
	C337.798004,270.740417 328.998169,275.523163 322.777802,284.348999 
	C316.200317,293.681519 315.020416,303.842194 320.467072,314.051697 
	C325.695160,323.851562 334.317657,328.813965 345.421722,328.618134 
	C362.274384,328.320892 378.068420,313.094208 378.236176,296.231689 
	C378.520386,267.662476 397.597534,252.472702 418.318420,238.327835 
	C420.547363,236.806244 423.601715,236.140808 426.358826,235.824310 
	C431.127777,235.276917 435.973236,235.015366 440.769958,235.165436 
	C452.704712,235.538849 467.013550,225.494156 461.327423,209.088425 
	C460.729675,207.363876 460.463501,205.526337 459.900452,203.787521 
	C455.833405,191.226929 448.656464,185.557220 435.438171,184.763672 
	C424.846588,184.127792 414.955505,181.148270 406.588959,174.749802 
	C392.328369,163.843689 380.023163,150.945786 371.422638,135.032303 
	C368.695190,129.985703 367.700623,124.033279 365.425446,118.703514 
	C362.719788,112.365311 359.488739,106.251366 356.019012,99.500404 
M398.270782,137.192612 
	C406.062683,147.404114 415.625061,155.153580 428.380829,158.123917 
	C430.144806,158.534698 432.799133,157.889145 434.045898,156.694122 
	C434.769592,156.000443 434.060516,152.828583 433.055176,151.466385 
	C422.903931,137.712051 410.857208,125.779739 397.198303,115.528923 
	C395.755554,114.446144 392.580231,113.845657 391.438904,114.688087 
	C390.236450,115.575630 389.657501,118.799263 390.294250,120.416168 
	C392.471863,125.945488 395.303223,131.217331 398.270782,137.192612 
M191.974915,376.542023 
	C194.833160,378.814850 197.531723,381.345428 200.614655,383.255646 
	C202.242691,384.264404 204.540527,384.192200 206.535934,384.608032 
	C206.977097,382.474701 208.139557,380.196716 207.745239,378.230988 
	C204.607422,362.588440 185.660416,343.864471 170.120407,341.031372 
	C168.134369,340.669312 165.879776,341.780182 163.749603,342.208710 
	C164.237305,344.184540 164.335999,346.382141 165.305832,348.083069 
	C166.687897,350.507019 168.538391,352.731201 170.487976,354.752106 
	C177.405533,361.922729 184.450043,368.970825 191.974915,376.542023 
M209.169327,118.508995 
	C208.317490,112.398224 204.792328,110.495903 200.096970,114.876778 
	C187.761063,126.386475 175.978989,138.501434 164.285233,150.672119 
	C162.901886,152.111893 162.335129,156.274155 163.382339,157.596848 
	C164.561768,159.086517 168.300278,159.767059 170.406326,159.116989 
	C190.451340,152.929749 203.588852,139.801880 209.169327,118.508995 
M394.134674,386.026825 
	C410.886200,376.028748 423.690002,361.919983 434.890259,346.281189 
	C437.349579,342.847290 434.644867,339.256775 430.317108,339.497437 
	C428.683075,339.588318 427.024200,340.058502 425.469025,340.614136 
	C409.940979,346.162415 398.681458,356.480164 391.727783,371.384064 
	C390.345306,374.347107 389.457428,377.638855 388.931366,380.874908 
	C388.443207,383.877747 389.806274,386.099884 394.134674,386.026825 
z"/>
<path fill="#FC4C29" opacity="1.000000" stroke="none" 
	d="
M341.630615,232.589890 
	C326.584229,227.511703 318.933380,217.128601 318.153625,201.562973 
	C317.513397,188.783493 312.645569,177.652939 304.184906,168.118927 
	C298.434021,161.638458 292.628174,155.200455 286.665405,148.915649 
	C274.047546,135.616302 256.997711,132.221848 240.626282,140.747787 
	C233.828339,144.288040 227.709625,149.511612 222.076797,154.813995 
	C215.057693,161.421341 208.838074,168.881180 202.312607,176.008957 
	C193.703735,185.412384 187.718521,195.971298 185.795685,208.919708 
	C183.211258,226.323212 165.218628,237.989075 149.717361,232.985260 
	C139.188507,229.586548 134.322693,220.869080 137.429169,210.336212 
	C141.579193,196.265030 149.463257,186.794754 165.546997,185.576050 
	C180.004776,184.480545 192.217407,177.641602 202.252426,167.154556 
	C207.665482,161.497665 213.145294,155.879837 218.197128,149.907837 
	C226.290787,140.339920 231.729828,129.387527 233.982819,116.959656 
	C234.279251,115.324524 234.700974,113.710289 235.107986,112.097313 
	C239.210312,95.839691 246.689362,89.229385 263.367279,87.105087 
	C274.767975,85.652946 284.296631,95.844574 282.721588,108.706215 
	C280.900940,123.573929 285.557678,135.856018 295.666046,146.475693 
	C299.226898,150.216660 302.639832,154.098129 306.134766,157.902161 
	C316.181671,168.837585 328.734375,174.000107 343.484283,174.083710 
	C360.182251,174.178345 374.074005,185.653366 377.128265,201.877686 
	C380.489166,219.731003 365.005951,236.006027 346.935425,233.595673 
	C345.286285,233.375671 343.656189,233.012741 341.630615,232.589890 
z"/>
<path fill="#FC4C29" opacity="1.000000" stroke="none" 
	d="
M454.111572,302.061462 
	C448.668854,308.982361 441.691956,312.589478 433.468414,313.742188 
	C417.813934,315.936462 404.702057,322.898468 394.119751,334.548370 
	C387.520050,341.813904 380.713837,348.963776 374.835632,356.792694 
	C368.797180,364.835083 365.143616,373.977417 364.331299,384.379059 
	C363.096191,400.194305 353.818726,409.433319 338.118225,411.841614 
	C324.010406,414.005615 313.592682,404.503540 315.348938,390.314087 
	C317.131409,375.912750 312.465698,364.178711 302.558258,354.093048 
	C299.872681,351.359192 297.137299,348.662140 294.617035,345.780121 
	C283.856293,333.474823 270.255493,327.782471 254.008453,327.615753 
	C242.161697,327.494202 232.809219,322.086884 226.239105,312.385010 
	C220.027817,303.213043 218.056290,293.197144 224.290649,283.306122 
	C230.623352,273.259003 240.525604,269.792114 251.974411,271.231598 
	C268.136719,273.263733 279.166779,285.790894 279.920074,302.039886 
	C280.465881,313.813568 284.981079,324.021698 293.049500,332.573975 
	C299.109009,338.996887 305.327881,345.271545 311.550049,351.538513 
	C324.251984,364.331879 340.770813,367.602661 356.855316,359.488586 
	C363.418091,356.177917 369.466400,351.387329 374.854950,346.319611 
	C382.485016,339.143829 389.299316,331.099091 396.440796,323.405853 
	C404.676392,314.533966 410.100464,304.392365 412.048431,292.219757 
	C414.786957,275.107117 432.558990,263.061249 448.495087,266.925568 
	C458.256378,269.292572 463.461395,277.102356 460.850464,286.798309 
	C459.450195,291.998383 456.549500,296.794434 454.111572,302.061462 
z"/>
<path fill="#EF4722" opacity="1.000000" stroke="none" 
	d="
M249.207855,234.182709 
	C232.920364,234.174728 219.532059,239.708527 208.853088,251.594635 
	C206.411224,254.312531 203.608673,256.709808 200.936859,259.217072 
	C185.560867,273.645996 182.619553,291.216431 192.485214,309.912354 
	C193.260971,311.382477 193.923523,313.003540 195.026352,314.195862 
	C206.863968,326.993622 218.396713,340.109955 230.835541,352.299622 
	C237.047989,358.387604 245.605087,360.999329 254.428894,362.193085 
	C269.053772,364.171600 280.652679,374.388275 283.309387,387.534973 
	C285.052704,396.161835 283.060547,403.892365 275.999146,409.535950 
	C269.038086,415.099365 261.523743,413.641754 254.421310,409.780914 
	C243.525604,403.858093 236.741180,394.702576 232.930984,382.807800 
	C230.320724,374.659027 227.592575,365.967133 222.551880,359.308594 
	C214.172302,348.239471 204.405518,338.061920 194.253937,328.542206 
	C185.894165,320.702759 175.116440,316.769409 163.713409,314.717102 
	C147.210770,311.746918 139.496994,304.099365 136.119873,288.010803 
	C133.630630,276.151978 139.364334,267.606476 151.319580,265.643219 
	C153.916077,265.216827 156.630859,265.292511 159.276657,265.425568 
	C167.257477,265.826843 175.294037,265.194885 181.936020,260.749847 
	C201.872772,247.407578 218.172928,231.518372 219.333801,205.196335 
	C220.012054,189.817596 232.552353,175.979736 247.123840,173.081772 
	C259.279236,170.664322 270.944183,176.182907 277.007294,187.219376 
	C283.583344,199.189514 281.726746,213.702423 272.186493,223.746933 
	C266.084412,230.171555 258.580658,233.754242 249.207855,234.182709 
M184.843323,287.536469 
	C184.999771,276.228088 189.587769,266.948517 197.741882,259.286438 
	C201.384811,255.863327 205.185608,252.581284 208.576294,248.921631 
	C219.325424,237.319824 232.727188,232.236786 248.303619,232.107956 
	C258.491730,232.023712 266.630219,227.648560 272.799713,219.697647 
	C280.717041,209.494202 280.819366,195.651077 273.267700,185.275467 
	C266.438507,175.892578 254.842270,171.987305 243.994400,176.171066 
	C230.126480,181.519562 222.258408,191.898026 221.297607,206.800278 
	C219.589722,233.289703 203.050751,249.506821 182.601807,262.759033 
	C175.366348,267.448090 166.693100,268.253479 157.989044,267.406006 
	C143.052399,265.951721 135.098251,275.579895 138.768448,290.078613 
	C141.985916,302.788879 149.950897,309.612213 162.676697,312.538239 
	C171.478409,314.562012 180.703552,317.166901 188.207794,321.926849 
	C206.018692,333.224335 220.093521,348.576904 229.864792,367.453888 
	C232.205643,371.976135 233.632446,377.040253 234.988647,381.989716 
	C238.212723,393.756165 245.219009,402.426941 255.864716,408.125122 
	C262.054382,411.438171 268.563812,412.764587 274.631226,407.919342 
	C280.788910,403.001984 282.746216,396.312714 281.371521,388.692932 
	C279.118927,376.207336 268.724152,366.505859 254.745621,364.474854 
	C241.838425,362.599426 231.006332,356.903259 221.971161,347.803009 
	C214.226440,340.002533 206.685333,331.975098 199.440567,323.709381 
	C190.651108,313.681274 185.041580,302.154022 184.843323,287.536469 
z"/>
<path fill="#EF4823" opacity="1.000000" stroke="none" 
	d="
M356.252197,99.770325 
	C359.488739,106.251366 362.719788,112.365311 365.425446,118.703514 
	C367.700623,124.033279 368.695190,129.985703 371.422638,135.032303 
	C380.023163,150.945786 392.328369,163.843689 406.588959,174.749802 
	C414.955505,181.148270 424.846588,184.127792 435.438171,184.763672 
	C448.656464,185.557220 455.833405,191.226929 459.900452,203.787521 
	C460.463501,205.526337 460.729675,207.363876 461.327423,209.088425 
	C467.013550,225.494156 452.704712,235.538849 440.769958,235.165436 
	C435.973236,235.015366 431.127777,235.276917 426.358826,235.824310 
	C423.601715,236.140808 420.547363,236.806244 418.318420,238.327835 
	C397.597534,252.472702 378.520386,267.662476 378.236176,296.231689 
	C378.068420,313.094208 362.274384,328.320892 345.421722,328.618134 
	C334.317657,328.813965 325.695160,323.851562 320.467072,314.051697 
	C315.020416,303.842194 316.200317,293.681519 322.777802,284.348999 
	C328.998169,275.523163 337.798004,270.740417 348.565582,270.176178 
	C362.850433,269.427582 375.138885,264.531311 385.007080,253.975067 
	C390.013580,248.619537 395.197662,243.427719 400.133667,238.009064 
	C412.350983,224.597046 414.552887,209.053192 406.291748,192.805405 
	C404.048401,188.393234 401.258942,184.111511 398.013885,180.384857 
	C389.920044,171.089844 381.591553,161.983078 373.034454,153.112152 
	C364.836090,144.613174 354.927490,139.303802 342.965668,137.719193 
	C328.015472,135.738724 316.382507,124.501930 314.392639,110.319603 
	C313.177856,101.661613 315.654419,93.961662 323.028870,88.753418 
	C330.098297,83.760643 337.480225,85.503731 344.143280,89.677719 
	C348.459290,92.381401 352.084351,96.188011 356.252197,99.770325 
M316.872192,112.313385 
	C320.618134,125.819450 329.814117,133.539459 343.300476,135.570938 
	C356.661713,137.583572 367.394287,143.799057 376.411896,153.462952 
	C383.456879,161.012909 390.713745,168.398529 397.282806,176.347733 
	C401.797882,181.811371 406.172821,187.717346 409.078644,194.120697 
	C416.634674,210.771454 414.098572,226.246933 401.455017,239.751556 
	C396.104767,245.466110 390.702820,251.134735 385.224182,256.726074 
	C375.556091,266.592957 363.680969,271.472534 349.955292,272.080261 
	C342.395660,272.415009 335.646240,274.962402 329.787842,279.752533 
	C320.965637,286.966034 317.219543,298.789001 320.485168,308.903748 
	C323.743378,318.995575 332.828308,325.904114 343.649506,326.518860 
	C359.921539,327.443207 375.900299,312.189789 376.186096,295.205139 
	C376.439850,280.123901 381.596497,267.299072 392.690521,256.916138 
	C396.701630,253.162170 400.481354,249.159882 404.342651,245.247177 
	C410.757294,238.747131 418.532104,234.728027 427.483765,233.365524 
	C431.716278,232.721329 436.112061,233.056915 440.432404,233.099731 
	C454.678925,233.240921 462.728821,223.272675 459.271759,209.615250 
	C458.538544,206.718628 457.762634,203.799210 456.635101,201.042130 
	C452.909668,191.932968 445.950378,187.286972 436.174713,186.922302 
	C426.665131,186.567596 417.523285,184.405518 409.667480,179.153290 
	C390.933960,166.628433 375.978149,150.580246 366.720245,129.758041 
	C365.113983,126.145355 364.142761,122.198654 363.278412,118.317123 
	C360.258026,104.754005 351.872864,95.531723 339.669342,89.822426 
	C329.593933,85.108742 319.978149,89.870750 317.225342,100.659996 
	C316.347656,104.099983 316.828766,107.886665 316.872192,112.313385 
z"/>
<path fill="#F9F9FA" opacity="1.000000" stroke="none" 
	d="
M458.893463,482.237000 
	C458.926605,482.547180 459.069092,482.794342 459.686035,483.363403 
	C464.235687,486.195648 463.580627,482.521088 463.626068,480.639832 
	C463.808563,473.087280 463.729004,465.528381 463.746338,457.971832 
	C466.033325,457.843231 468.320312,457.714630 470.899170,458.264008 
	C471.170776,472.293488 471.150482,485.645050 471.130188,498.996582 
	C467.417603,501.079712 464.010956,501.081421 460.869751,497.787689 
	C454.095428,490.684387 447.247253,483.651520 440.314178,476.009460 
	C439.900909,475.173126 439.602814,474.917206 439.304688,474.661316 
	C439.304688,474.661316 438.978943,474.946106 438.869568,474.506744 
	C435.758575,471.130371 434.937195,472.894470 434.861603,475.933563 
	C434.667664,483.733856 434.535553,491.535645 434.378723,499.336853 
	C434.378693,499.336853 434.272339,499.496674 434.153168,499.622528 
	C434.033997,499.748383 433.994690,499.915894 433.582947,500.002747 
	C431.286285,499.888428 429.401398,499.687225 427.516510,499.486023 
	C427.341370,499.581421 427.166260,499.676758 427.079895,499.220520 
	C427.109436,494.869568 426.960571,491.069061 427.008545,487.271057 
	C427.133514,477.375336 427.344788,467.480652 427.521637,457.585571 
	C427.521637,457.585571 427.587311,457.462555 427.763885,457.363434 
	C427.940460,457.264313 428.006012,456.991760 428.006012,456.991760 
	C429.415436,456.913208 430.824860,456.834656 432.865417,456.753143 
	C433.496582,456.750153 433.964996,456.668335 433.964996,456.668335 
	C435.012024,457.052460 436.393005,457.136017 437.052521,457.868866 
	C441.777222,463.118622 446.355194,468.500458 451.331268,474.289734 
	C451.952789,474.943512 452.222809,475.147888 452.492828,475.352295 
	C452.492828,475.352295 452.580139,475.445099 452.661133,475.669861 
	C452.867737,476.130737 453.063324,476.264252 453.328949,476.295197 
	C453.328949,476.295197 453.439575,476.557953 453.596008,476.758698 
	C453.856110,477.145752 454.014465,477.242432 454.227448,477.249512 
	C454.227448,477.249512 454.387543,477.626526 454.609375,477.782593 
	C454.831207,477.938629 455.074768,478.137482 455.074768,478.137482 
	C455.167358,478.320557 455.259949,478.503662 455.655273,478.809326 
	C455.958008,478.931915 455.960449,478.976562 455.960449,478.976562 
	C456.062988,479.202576 456.165527,479.428589 456.628754,479.792847 
	C456.989441,479.931122 457.000641,479.981506 457.000641,479.981506 
	C457.042175,480.176483 457.083679,480.371429 457.460327,480.965332 
	C458.161438,481.655182 458.527466,481.946075 458.893463,482.237000 
z"/>
<path fill="#F6F7F7" opacity="1.000000" stroke="none" 
	d="
M274.431122,457.547150 
	C274.771057,457.339691 275.111023,457.132233 276.056183,456.814636 
	C288.057068,456.726227 299.452728,456.748016 310.848419,456.769806 
	C318.896423,461.227570 320.738708,468.239685 315.687500,477.142822 
	C315.039398,477.995544 314.777893,478.365326 314.516388,478.735077 
	C314.516388,478.735077 314.756927,478.654449 314.410614,478.687012 
	C313.616241,479.077576 313.168182,479.435547 312.720093,479.793488 
	C312.720093,479.793488 312.871490,479.838440 312.459961,479.855194 
	C303.734467,480.108551 295.420502,480.345154 287.106506,480.581726 
	C287.033173,480.263214 286.834625,480.081512 286.123657,479.646301 
	C285.533813,477.183777 285.331177,475.111603 285.507141,472.925415 
	C287.456360,472.200989 289.005493,471.140594 290.601562,471.064545 
	C295.418365,470.835083 300.273712,471.240082 305.070099,470.853302 
	C306.714539,470.720734 308.229248,468.979553 309.831360,467.728363 
	C309.504211,467.152832 309.148865,466.822205 308.647736,466.415833 
	C308.501923,466.340118 308.215363,466.500977 307.910339,466.191589 
	C304.495331,465.923065 301.384247,465.925415 298.275635,466.013611 
	C293.429749,466.151184 288.585541,466.347107 283.704956,466.531555 
	C283.669281,466.544861 283.606598,466.501740 283.251007,466.720947 
	C282.684814,477.287933 282.474213,487.635651 282.263641,497.983398 
	C280.461243,501.446564 277.725342,500.541321 274.650848,498.970276 
	C274.365234,484.781372 274.398163,471.164276 274.431122,457.547150 
z"/>
<path fill="#F4F5F6" opacity="1.000000" stroke="none" 
	d="
M232.641464,499.481049 
	C226.462540,501.958557 225.078018,500.994202 225.061172,494.238800 
	C225.052887,490.916595 225.434860,487.505493 224.776062,484.312958 
	C224.482239,482.889069 222.074097,480.917084 220.596954,480.892212 
	C214.194580,480.784363 207.768402,481.677582 201.377548,481.451843 
	C197.638428,481.319763 196.220474,482.509003 196.181824,485.944824 
	C196.146301,489.101440 196.196762,492.259033 196.166519,495.415741 
	C196.117188,500.564972 194.175140,501.609863 188.762085,498.644531 
	C188.549149,484.688293 188.578781,471.389496 188.608414,458.090698 
	C194.250534,455.213684 196.150238,456.261108 196.170471,462.261963 
	C196.174942,463.588531 196.224411,464.917511 196.163406,466.241241 
	C195.982635,470.163483 197.641739,472.022461 201.746201,471.903412 
	C207.710800,471.730438 213.685669,471.776642 219.653183,471.888000 
	C223.373322,471.957397 225.292770,470.490082 225.072571,466.619324 
	C224.997360,465.297119 225.062897,463.966888 225.064667,462.640320 
	C225.072906,456.433075 225.754852,455.929352 232.382080,458.027649 
	C232.703445,472.200500 232.672455,485.840790 232.641464,499.481049 
z"/>
<path fill="#FAFBFB" opacity="1.000000" stroke="none" 
	d="
M181.002823,456.998413 
	C181.056763,459.530670 181.110703,462.062897 180.557098,464.987610 
	C171.964371,465.591125 163.979156,465.802216 155.993958,466.013306 
	C148.021729,467.176971 143.849319,475.001862 146.735321,482.426605 
	C148.276291,486.390930 149.829041,489.835114 155.095169,491.110199 
	C163.785080,491.246521 171.662308,491.277191 179.539536,491.307861 
	C182.871201,494.081635 183.150223,497.025940 179.302917,500.262238 
	C170.649216,500.405701 162.726593,500.446808 154.803955,500.487915 
	C144.691833,498.147949 138.478958,491.115692 137.824249,481.268860 
	C137.007507,468.984772 141.743515,461.100494 153.167450,456.936340 
	C162.980255,456.874207 171.991547,456.936310 181.002823,456.998413 
z"/>
<path fill="#FB4D29" opacity="1.000000" stroke="none" 
	d="
M398.078003,136.889999 
	C395.303223,131.217331 392.471863,125.945488 390.294250,120.416168 
	C389.657501,118.799263 390.236450,115.575630 391.438904,114.688087 
	C392.580231,113.845657 395.755554,114.446144 397.198303,115.528923 
	C410.857208,125.779739 422.903931,137.712051 433.055176,151.466385 
	C434.060516,152.828583 434.769592,156.000443 434.045898,156.694122 
	C432.799133,157.889145 430.144806,158.534698 428.380829,158.123917 
	C415.625061,155.153580 406.062683,147.404114 398.078003,136.889999 
z"/>
<path fill="#FC4D29" opacity="1.000000" stroke="none" 
	d="
M191.710693,376.303680 
	C184.450043,368.970825 177.405533,361.922729 170.487976,354.752106 
	C168.538391,352.731201 166.687897,350.507019 165.305832,348.083069 
	C164.335999,346.382141 164.237305,344.184540 163.749603,342.208710 
	C165.879776,341.780182 168.134369,340.669312 170.120407,341.031372 
	C185.660416,343.864471 204.607422,362.588440 207.745239,378.230988 
	C208.139557,380.196716 206.977097,382.474701 206.535950,384.608032 
	C204.540527,384.192200 202.242691,384.264404 200.614655,383.255646 
	C197.531723,381.345428 194.833160,378.814850 191.710693,376.303680 
z"/>
<path fill="#F9F9FA" opacity="1.000000" stroke="none" 
	d="
M395.937531,456.571686 
	C397.043915,456.632996 398.150269,456.694305 399.987854,456.776672 
	C401.383331,456.993622 402.047546,457.189484 402.711761,457.385376 
	C402.711761,457.385376 402.765259,457.263702 402.777222,457.523682 
	C402.955505,458.088409 403.203339,458.295746 403.532684,458.405701 
	C403.688812,458.304932 403.844940,458.204132 403.892853,458.606689 
	C406.488068,465.161835 409.191559,471.213593 411.895020,477.265320 
	C414.834106,484.604156 417.773193,491.942963 420.743958,499.360962 
	C413.224396,501.246307 412.679779,500.955994 409.977875,494.674683 
	C406.795929,487.277313 403.580841,479.893921 400.320831,472.530731 
	C399.939087,471.668518 399.181793,470.972595 397.532654,468.786713 
	C393.405212,478.444702 389.662750,487.201874 385.636597,496.504456 
	C385.143341,497.652039 384.933807,498.254181 384.724274,498.856323 
	C384.724274,498.856323 384.861572,498.873199 384.593933,498.913910 
	C384.142456,499.258484 383.958557,499.562378 383.774658,499.866272 
	C383.774689,499.866272 383.877441,499.892883 383.632629,499.890900 
	C383.387848,499.888916 383.014282,500.190155 383.014282,500.190125 
	C381.938110,500.225952 380.861908,500.261749 379.046722,500.290527 
	C377.584198,500.123901 376.860718,499.964325 376.137207,499.804749 
	C376.137207,499.804749 376.095123,499.907867 376.075745,499.514862 
	C376.837372,496.804077 377.499512,494.437927 378.419800,492.176849 
	C382.641693,481.803986 386.935760,471.460449 391.203918,461.106415 
	C391.203918,461.106415 391.109955,461.089111 391.406464,460.992554 
	C392.297424,459.795471 392.891846,458.694916 393.486298,457.594360 
	C393.486298,457.594360 393.497711,457.494324 393.830200,457.357422 
	C394.754333,457.004211 395.345917,456.787964 395.937531,456.571686 
z"/>
<path fill="#F9F9FA" opacity="1.000000" stroke="none" 
	d="
M570.265991,456.498657 
	C574.308716,458.402222 572.970642,461.555054 571.543457,464.980957 
	C565.867493,465.841736 560.792480,466.310638 555.717407,466.779541 
	C555.717407,466.779510 555.837585,466.842163 555.473206,467.073853 
	C554.942566,477.832855 554.776367,488.360229 554.610107,498.887573 
	C554.610107,498.887573 554.819092,498.884460 554.567505,498.914490 
	C554.191467,499.257263 554.066956,499.569977 553.942505,499.882690 
	C546.952576,500.860809 546.918274,500.831055 546.918396,493.849701 
	C546.918579,486.541901 546.939819,479.233978 546.910950,471.926300 
	C546.887817,466.059998 546.299377,465.511536 540.266418,465.466431 
	C538.605591,465.454041 536.944702,465.468384 535.283813,465.468048 
	C528.200500,465.466583 527.362610,464.225586 530.371521,456.958252 
	C544.123596,456.653046 557.194824,456.575867 570.265991,456.498657 
z"/>
<path fill="#FAFAFB" opacity="1.000000" stroke="none" 
	d="
M37.128220,465.228302 
	C36.978745,462.700867 36.829266,460.173462 37.297089,457.226196 
	C51.565205,456.793579 65.216011,456.780792 78.866821,456.768005 
	C81.934830,463.179779 80.690781,465.459778 74.095711,465.462402 
	C60.291332,465.467896 62.164024,464.514587 62.052822,477.500031 
	C62.004314,483.164246 62.052387,488.829193 62.043930,494.493805 
	C62.034916,500.531067 61.011723,501.245178 54.562271,498.931580 
	C54.204037,491.217285 54.279007,484.075134 54.145485,476.936920 
	C54.088654,473.898682 53.595596,470.868652 53.300777,467.834869 
	C53.300777,467.834869 53.671532,467.650635 53.424843,467.090942 
	C47.828175,466.096924 42.478195,465.662598 37.128220,465.228302 
z"/>
<path fill="#F9F9FA" opacity="1.000000" stroke="none" 
	d="
M342.693848,500.566833 
	C341.502625,500.321167 340.311432,500.075531 338.547333,499.609589 
	C337.179932,499.065552 336.385376,498.741791 335.590820,498.418030 
	C335.590820,498.418030 335.473602,498.407043 335.273895,498.197632 
	C334.817505,497.803223 334.531311,497.700073 334.215607,497.678833 
	C334.215607,497.678833 334.162354,497.806274 334.114716,497.540894 
	C333.630371,497.013092 333.193695,496.750671 332.756989,496.488220 
	C332.756989,496.488220 332.586792,496.283661 332.404053,496.109161 
	C332.106232,495.774506 331.952820,495.671631 331.760986,495.626038 
	C331.760986,495.626038 331.626648,495.365875 331.437317,495.173065 
	C331.134888,494.815613 330.981995,494.706818 330.789337,494.653870 
	C330.789337,494.653870 330.692749,494.414917 330.459412,494.117004 
	C329.868927,493.479279 329.511780,493.139526 329.154602,492.799744 
	C329.154602,492.799744 329.115997,492.892670 329.071411,492.625519 
	C328.709595,492.186188 328.392365,492.014038 328.075134,491.841888 
	C328.075134,491.841888 328.062683,491.948517 328.051544,491.635406 
	C327.787445,490.785797 327.534485,490.249298 327.281525,489.712799 
	C327.281525,489.712799 327.222626,489.827667 327.194702,489.422546 
	C323.608917,478.710541 325.267334,468.139313 325.576172,457.636475 
	C325.576172,457.636475 325.150360,457.553955 325.694153,457.340912 
	C328.284363,457.281372 330.330841,457.434875 332.377289,457.588379 
	C332.377289,457.588379 332.485504,457.595367 332.627838,458.030396 
	C332.818115,463.580688 332.664032,468.708618 332.983398,473.806854 
	C333.204376,477.334564 334.078735,480.821381 334.661133,484.326447 
	C334.661133,484.326447 334.731934,484.196472 334.737976,484.507751 
	C335.105652,485.292267 335.467285,485.765503 335.828918,486.238739 
	C335.828918,486.238739 335.864197,486.099670 335.856018,486.416504 
	C336.203979,487.199646 336.560089,487.665894 336.916199,488.132172 
	C336.916199,488.132172 336.959442,488.040710 337.040833,488.350220 
	C337.703796,488.877869 338.285400,489.096039 338.867004,489.314209 
	C338.867004,489.314178 338.884796,489.160492 339.031555,489.491699 
	C342.200745,490.412567 345.206085,491.375641 348.249115,491.514984 
	C354.817474,491.815735 361.405243,491.693604 367.985046,491.744507 
	C368.089417,494.435760 368.193787,497.127014 367.624817,500.063416 
	C358.865631,500.394623 350.779724,500.480713 342.693848,500.566833 
z"/>
<path fill="#F3F4F5" opacity="1.000000" stroke="none" 
	d="
M520.810364,471.864685 
	C520.968628,474.493713 521.126892,477.122772 520.647583,480.162170 
	C506.366638,480.525024 492.723297,480.477448 479.079926,480.429871 
	C478.972839,477.746246 478.865723,475.062622 479.374969,472.098877 
	C493.597656,471.834076 507.204010,471.849396 520.810364,471.864685 
z"/>
<path fill="#F3F4F5" opacity="1.000000" stroke="none" 
	d="
M88.086655,480.419037 
	C87.980881,477.740906 87.875114,475.062744 88.380730,472.103210 
	C102.601570,471.831543 116.211021,471.841278 129.820480,471.851044 
	C129.982697,474.495789 130.144913,477.140564 129.655060,480.182678 
	C115.364220,480.526398 101.725433,480.472717 88.086655,480.419037 
z"/>
<path fill="#FFFFFF" opacity="1.000000" stroke="none" 
	d="
M521.021118,456.936493 
	C521.156006,459.445435 521.290955,461.954407 520.797424,464.907593 
	C506.455292,465.319885 492.741577,465.287903 479.027863,465.255920 
	C478.863190,462.693848 478.698517,460.131805 479.220612,457.178589 
	C493.611969,456.837128 507.316528,456.886810 521.021118,456.936493 
z"/>
<path fill="#FFFFFF" opacity="1.000000" stroke="none" 
	d="
M130.022720,456.924744 
	C130.164047,459.447876 130.305359,461.970978 129.780472,464.931274 
	C115.421005,465.329865 101.727753,465.291321 88.034500,465.252808 
	C87.876984,462.700470 87.719475,460.148102 88.235466,457.194733 
	C102.613548,456.837372 116.318138,456.881042 130.022720,456.924744 
z"/>
<path fill="#FEFEFE" opacity="1.000000" stroke="none" 
	d="
M479.014313,500.168152 
	C478.850861,497.593811 478.687408,495.019501 479.236877,492.062256 
	C493.642914,491.753113 507.336029,491.826874 521.029175,491.900635 
	C521.145142,494.393005 521.261047,496.885406 520.734741,499.801514 
	C506.399841,500.206177 492.707062,500.187164 479.014313,500.168152 
z"/>
<path fill="#FFFFFF" opacity="1.000000" stroke="none" 
	d="
M87.968773,500.119934 
	C87.829666,497.567505 87.690552,495.015106 88.249359,492.071838 
	C102.641983,491.749084 116.336685,491.817200 130.031387,491.885315 
	C130.158096,494.392426 130.284805,496.899506 129.751648,499.816803 
	C115.384094,500.191315 101.676430,500.155640 87.968773,500.119934 
z"/>
<path fill="#EE4621" opacity="1.000000" stroke="none" 
	d="
M209.136139,118.935837 
	C203.588852,139.801880 190.451340,152.929749 170.406326,159.116989 
	C168.300278,159.767059 164.561768,159.086517 163.382339,157.596848 
	C162.335129,156.274155 162.901886,152.111893 164.285233,150.672119 
	C175.978989,138.501434 187.761063,126.386475 200.096970,114.876778 
	C204.792328,110.495903 208.317490,112.398224 209.136139,118.935837 
M197.756607,138.211975 
	C200.622681,132.812943 203.729645,127.521515 206.216705,121.953201 
	C207.025131,120.143250 206.213165,117.609558 206.142349,115.406906 
	C204.062973,116.044746 201.388458,116.069016 199.998306,117.417412 
	C188.800629,128.278717 177.833542,139.378174 166.838562,150.447144 
	C166.041885,151.249191 165.502106,152.343765 164.976746,153.370834 
	C163.535553,156.188431 164.830750,157.565567 167.610641,157.502563 
	C169.392548,157.462189 171.210129,156.881882 172.923706,156.289124 
	C182.784027,152.878204 190.765701,146.820068 197.756607,138.211975 
z"/>
<path fill="#EF4621" opacity="1.000000" stroke="none" 
	d="
M393.734253,386.072266 
	C389.806274,386.099884 388.443207,383.877747 388.931366,380.874908 
	C389.457428,377.638855 390.345306,374.347107 391.727783,371.384064 
	C398.681458,356.480164 409.940979,346.162415 425.469025,340.614136 
	C427.024200,340.058502 428.683075,339.588318 430.317108,339.497437 
	C434.644867,339.256775 437.349579,342.847290 434.890259,346.281189 
	C423.690002,361.919983 410.886200,376.028748 393.734253,386.072266 
M394.521301,370.135132 
	C393.373016,373.068604 391.986938,375.938812 391.181976,378.963654 
	C390.808716,380.366211 391.566559,382.069824 391.811615,383.636932 
	C393.337677,383.346313 395.218048,383.529297 396.335907,382.693024 
	C409.985474,372.481628 421.941559,360.529266 432.198120,346.913208 
	C432.980377,345.874695 432.942047,344.218018 433.285187,342.848724 
	C431.754242,342.526917 430.213959,341.917328 428.695007,341.966431 
	C427.254883,342.012970 425.797119,342.649353 424.415588,343.198547 
	C411.391541,348.376038 401.624908,357.230042 394.521301,370.135132 
z"/>
<path fill="#00000E" opacity="1.000000" stroke="none" 
	d="
M520.900879,456.551331 
	C507.316528,456.886810 493.611969,456.837128 479.438934,456.838531 
	C479.963806,456.261719 480.951843,455.097260 481.951233,455.087433 
	C494.223785,454.966705 506.498047,454.996979 518.771423,455.068451 
	C519.443237,455.072388 520.110962,455.783966 520.900879,456.551331 
z"/>
<path fill="#00000F" opacity="1.000000" stroke="none" 
	d="
M88.100723,500.498352 
	C101.676430,500.155640 115.384094,500.191315 129.558380,500.160919 
	C129.037674,500.727753 128.055740,501.901489 127.062172,501.911407 
	C114.797287,502.033752 102.530617,502.003876 90.264832,501.935425 
	C89.585495,501.931641 88.909973,501.245392 88.100723,500.498352 
z"/>
<path fill="#00000F" opacity="1.000000" stroke="none" 
	d="
M129.899597,491.506470 
	C116.336685,491.817200 102.641983,491.749084 88.482758,491.744507 
	C88.855667,491.208954 89.689270,490.094421 90.531082,490.088165 
	C103.099724,489.994995 115.669533,490.035767 128.238663,490.111694 
	C128.750397,490.114777 129.258163,490.774048 129.899597,491.506470 
z"/>
<path fill="#00000F" opacity="1.000000" stroke="none" 
	d="
M479.139465,500.544067 
	C492.707062,500.187164 506.399841,500.206177 520.558228,500.151367 
	C520.043640,500.716095 519.068909,501.900391 518.082214,501.910370 
	C505.827148,502.034485 493.570221,502.004944 481.314178,501.939697 
	C480.629211,501.936066 479.947693,501.275024 479.139465,500.544067 
z"/>
<path fill="#00000F" opacity="1.000000" stroke="none" 
	d="
M520.900146,491.519867 
	C507.336029,491.826874 493.642914,491.753113 479.484955,491.738281 
	C479.860138,491.201599 480.695648,490.094635 481.540802,490.087189 
	C493.945343,489.978088 506.351227,489.997986 518.756409,490.065826 
	C519.429932,490.069489 520.099670,490.765411 520.900146,491.519867 
z"/>
<path fill="#00000E" opacity="1.000000" stroke="none" 
	d="
M129.899216,456.541565 
	C116.318138,456.881042 102.613548,456.837372 88.441071,456.849182 
	C88.962814,456.271759 89.947083,455.098175 90.942894,455.088287 
	C103.214470,454.966461 115.487831,454.996735 127.760269,455.067566 
	C128.434158,455.071442 129.103989,455.778595 129.899216,456.541565 
z"/>
<path fill="#0B1B2D" opacity="1.000000" stroke="none" 
	d="
M427.114563,457.543518 
	C427.344788,467.480652 427.133514,477.375336 427.008545,487.271057 
	C426.960571,491.069061 427.109436,494.869568 427.341797,499.070984 
	C426.677155,498.347290 425.128296,497.232208 425.111176,496.094116 
	C424.934021,484.308105 424.959595,472.517883 425.079102,460.730408 
	C425.090027,459.648712 426.140015,458.577515 427.114563,457.543518 
z"/>
<path fill="#000114" opacity="1.000000" stroke="none" 
	d="
M471.512115,498.881042 
	C471.150482,485.645050 471.170776,472.293488 471.160095,458.473816 
	C471.750824,458.992706 472.903168,459.974365 472.913300,460.967621 
	C473.034790,472.884613 473.004913,484.803467 472.936920,496.721375 
	C472.933014,497.404694 472.257172,498.084198 471.512115,498.881042 
z"/>
<path fill="#00000E" opacity="1.000000" stroke="none" 
	d="
M78.719307,456.350647 
	C65.216011,456.780792 51.565205,456.793579 37.448830,456.877106 
	C37.963352,456.300751 38.938377,455.099762 39.924297,455.090759 
	C52.239269,454.978241 64.555870,455.026886 76.871750,455.091675 
	C77.439888,455.094666 78.005180,455.640381 78.719307,456.350647 
z"/>
<path fill="#000114" opacity="1.000000" stroke="none" 
	d="
M129.700684,471.420227 
	C116.211021,471.841278 102.601570,471.831543 88.583786,471.820251 
	C89.016685,471.219452 89.853813,470.105011 90.699776,470.098267 
	C103.107117,469.999359 115.515694,470.036194 127.923668,470.100983 
	C128.477600,470.103851 129.028564,470.680176 129.700684,471.420227 
z"/>
<path fill="#000114" opacity="1.000000" stroke="none" 
	d="
M520.694824,471.432251 
	C507.204010,471.849396 493.597656,471.834076 479.582855,471.816895 
	C480.016541,471.217010 480.854614,470.104980 481.701416,470.098267 
	C494.109650,470.000000 506.519104,470.037140 518.927979,470.102783 
	C519.479919,470.105682 520.028870,470.687592 520.694824,471.432251 
z"/>
<path fill="#151C29" opacity="1.000000" stroke="none" 
	d="
M390.861694,461.215393 
	C386.935760,471.460449 382.641693,481.803986 378.419800,492.176849 
	C377.499512,494.437927 376.837372,496.804077 376.126862,499.492798 
	C375.592896,499.024750 374.277344,497.876587 374.488007,497.392029 
	C379.733917,485.326904 385.140930,473.331848 390.861694,461.215393 
z"/>
<path fill="#050614" opacity="1.000000" stroke="none" 
	d="
M285.128540,473.039459 
	C285.331177,475.111603 285.533813,477.183777 285.912476,479.615234 
	C285.390320,481.392731 284.258820,482.757233 284.075256,484.239166 
	C283.520996,488.713989 283.334961,493.234344 282.634521,497.860168 
	C282.474213,487.635651 282.684814,477.287933 283.376862,467.156616 
	C284.281708,469.261841 284.705139,471.150635 285.128540,473.039459 
z"/>
<path fill="#00000E" opacity="1.000000" stroke="none" 
	d="
M88.167252,465.619781 
	C101.727753,465.291321 115.421005,465.329865 129.575378,465.272766 
	C129.194412,465.780701 128.356537,466.903168 127.509575,466.910034 
	C114.967247,467.012115 102.423653,466.977966 89.880676,466.914429 
	C89.352242,466.911743 88.826828,466.309631 88.167252,465.619781 
z"/>
<path fill="#071526" opacity="1.000000" stroke="none" 
	d="
M325.185913,457.605713 
	C325.267334,468.139313 323.608917,478.710541 327.255554,489.401001 
	C326.042786,486.799927 323.914490,483.897125 323.609131,480.813751 
	C322.942139,474.078064 323.132202,467.250366 323.160980,460.461060 
	C323.165039,459.496735 324.224609,458.536896 325.185913,457.605713 
z"/>
<path fill="#00000E" opacity="1.000000" stroke="none" 
	d="
M479.163452,465.622253 
	C492.741577,465.287903 506.455292,465.319885 520.603271,465.251648 
	C520.201599,465.763245 519.369934,466.901001 518.528931,466.907990 
	C505.980621,467.011780 493.430969,466.977905 480.881958,466.914917 
	C480.352783,466.912292 479.826630,466.310974 479.163452,465.622253 
z"/>
<path fill="#00000E" opacity="1.000000" stroke="none" 
	d="
M180.895752,456.606873 
	C171.991547,456.936310 162.980255,456.874207 153.504395,456.779419 
	C153.885895,456.167969 154.724075,455.100555 155.579300,455.086700 
	C163.325958,454.961304 171.075928,454.991394 178.823807,455.076599 
	C179.482864,455.083862 180.133926,455.818573 180.895752,456.606873 
z"/>
<path fill="#313541" opacity="1.000000" stroke="none" 
	d="
M463.381317,458.098145 
	C463.729004,465.528381 463.808563,473.087280 463.626068,480.639832 
	C463.580627,482.521088 464.235687,486.195648 459.892700,483.436249 
	C460.525635,481.781036 461.931854,480.468292 461.999847,479.089569 
	C462.265869,473.692200 462.043304,468.272644 462.151215,462.864319 
	C462.182190,461.312592 462.714081,459.770813 463.381317,458.098145 
z"/>
<path fill="#050614" opacity="1.000000" stroke="none" 
	d="
M367.856873,491.373688 
	C361.405243,491.693604 354.817474,491.815735 348.249115,491.514984 
	C345.206085,491.375641 342.200745,490.412567 338.956696,489.511169 
	C347.053528,489.463989 355.373596,489.689240 363.688812,490.032654 
	C365.046478,490.088715 366.382599,490.666321 367.856873,491.373688 
z"/>
<path fill="#071526" opacity="1.000000" stroke="none" 
	d="
M334.766266,483.841553 
	C334.078735,480.821381 333.204376,477.334564 332.983398,473.806854 
	C332.664032,468.708618 332.818115,463.580688 332.598602,458.076050 
	C333.283844,459.166931 334.832001,460.625336 334.879547,462.131073 
	C335.102753,469.199127 334.913452,476.280212 334.766266,483.841553 
z"/>
<path fill="#00000F" opacity="1.000000" stroke="none" 
	d="
M88.274933,480.810547 
	C101.725433,480.472717 115.364220,480.526398 129.458527,480.482239 
	C128.997559,480.919586 128.083755,481.915131 127.164185,481.920502 
	C114.689789,481.993195 102.214569,481.935425 89.739769,481.868683 
	C89.313072,481.866425 88.888680,481.433960 88.274933,480.810547 
z"/>
<path fill="#00000F" opacity="1.000000" stroke="none" 
	d="
M479.271637,480.819763 
	C492.723297,480.477448 506.366638,480.525024 520.465210,480.467072 
	C520.008057,480.904053 519.098511,481.913055 518.182922,481.918549 
	C505.703857,481.993469 493.223877,481.936279 480.744354,481.870789 
	C480.316223,481.868530 479.890289,481.439636 479.271637,480.819763 
z"/>
<path fill="#00000E" opacity="1.000000" stroke="none" 
	d="
M570.522095,456.264099 
	C557.194824,456.575867 544.123596,456.653046 530.592529,456.729889 
	C531.013000,456.158264 531.889587,455.096466 532.774292,455.089630 
	C545.270508,454.992554 557.767761,455.038116 570.264771,455.057983 
	C570.417480,455.058228 570.670166,455.141418 570.702881,455.242188 
	C570.782471,455.486877 570.759766,455.764893 570.522095,456.264099 
z"/>
<path fill="#00000E" opacity="1.000000" stroke="none" 
	d="
M188.212769,458.272461 
	C188.578781,471.389496 188.549149,484.688293 188.555145,498.449463 
	C188.063980,497.990601 187.085907,497.072906 187.078690,496.147644 
	C186.985336,484.170593 187.019104,472.192444 187.072922,460.214813 
	C187.075577,459.626862 187.558090,459.041077 188.212769,458.272461 
z"/>
<path fill="#00000E" opacity="1.000000" stroke="none" 
	d="
M232.939514,499.128662 
	C232.672455,485.840790 232.703445,472.200500 232.694397,458.040039 
	C233.101898,458.717804 233.928909,459.912781 233.938278,461.114166 
	C234.030228,472.897552 233.999939,484.682098 233.948669,496.466034 
	C233.945328,497.237122 233.485199,498.006226 232.939514,499.128662 
z"/>
<path fill="#000114" opacity="1.000000" stroke="none" 
	d="
M274.112549,457.883423 
	C274.398163,471.164276 274.365234,484.781372 274.408295,498.911499 
	C273.990417,498.258881 273.077423,497.096802 273.067505,495.927063 
	C272.967102,484.125061 273.000214,472.321686 273.053711,460.518982 
	C273.057190,459.751434 273.536163,458.986053 274.112549,457.883423 
z"/>
<path fill="#00000F" opacity="1.000000" stroke="none" 
	d="
M310.708130,456.351532 
	C299.452728,456.748016 288.057068,456.726227 276.163818,456.715424 
	C276.763885,456.154572 277.855988,455.099091 278.960022,455.086426 
	C288.928558,454.972015 298.899231,455.026001 308.868896,455.092438 
	C309.437042,455.096222 310.001617,455.640533 310.708130,456.351532 
z"/>
<path fill="#151C29" opacity="1.000000" stroke="none" 
	d="
M411.923340,476.854370 
	C409.191559,471.213593 406.488068,465.161835 403.664673,458.767273 
	C404.018768,458.518677 404.819183,458.480408 404.919067,458.726471 
	C407.308777,464.613647 409.623383,470.531311 411.923340,476.854370 
z"/>
<path fill="#000114" opacity="1.000000" stroke="none" 
	d="
M554.991333,498.689636 
	C554.776367,488.360229 554.942566,477.832855 555.444885,467.012268 
	C555.644836,477.309906 555.508667,487.900787 554.991333,498.689636 
z"/>
<path fill="#071526" opacity="1.000000" stroke="none" 
	d="
M434.791260,499.332642 
	C434.535553,491.535645 434.667664,483.733856 434.861603,475.933563 
	C434.937195,472.894470 435.758575,471.130371 439.036011,474.369904 
	C436.583801,474.848785 435.885895,476.408447 435.962250,478.962311 
	C436.118774,484.197876 436.068604,489.442596 435.971344,494.681061 
	C435.942535,496.234375 435.471954,497.779510 434.791260,499.332642 
z"/>
<path fill="#00000F" opacity="1.000000" stroke="none" 
	d="
M53.211506,468.304810 
	C53.595596,470.868652 54.088654,473.898682 54.145485,476.936920 
	C54.279007,484.075134 54.204037,491.217285 54.311901,498.866852 
	C53.938450,498.051605 53.070717,496.730896 53.058636,495.402435 
	C52.977924,486.527466 53.079700,477.650848 53.211506,468.304810 
z"/>
<path fill="#00000F" opacity="1.000000" stroke="none" 
	d="
M342.376648,500.717834 
	C350.779724,500.480713 358.865631,500.394623 367.411591,500.296387 
	C367.328308,500.820312 366.790985,501.816284 366.240631,501.823517 
	C358.026794,501.931793 349.811249,501.910461 341.596100,501.909637 
	C341.445465,501.909637 341.294830,501.786133 341.144196,501.720245 
	C341.449280,501.436432 341.754395,501.152618 342.376648,500.717834 
z"/>
<path fill="#00000F" opacity="1.000000" stroke="none" 
	d="
M154.536438,500.715637 
	C162.726593,500.446808 170.649216,500.405701 178.987854,500.473267 
	C179.229141,501.048523 179.057083,501.922028 178.879349,501.923157 
	C170.811310,501.975555 162.742783,501.952637 154.674347,501.927582 
	C154.527512,501.927124 154.275299,501.815857 154.255203,501.718597 
	C154.204269,501.471680 154.257416,501.203217 154.536438,500.715637 
z"/>
<path fill="#050614" opacity="1.000000" stroke="none" 
	d="
M287.303284,480.959717 
	C295.420502,480.345154 303.734467,480.108551 312.452820,479.776550 
	C312.089844,480.428253 311.319946,481.824982 310.555542,481.822021 
	C302.869873,481.792175 295.185089,481.532654 287.303284,480.959717 
z"/>
<path fill="#00000F" opacity="1.000000" stroke="none" 
	d="
M179.748352,491.060852 
	C171.662308,491.277191 163.785080,491.246521 155.457504,491.070251 
	C163.323822,490.887726 171.640488,490.850800 179.748352,491.060852 
z"/>
<path fill="#00000E" opacity="1.000000" stroke="none" 
	d="
M156.289185,466.309875 
	C163.979156,465.802216 171.964371,465.591125 180.404755,465.300537 
	C180.003799,465.807770 179.148666,466.899994 178.291367,466.901703 
	C171.055939,466.916168 163.820099,466.731354 156.289185,466.309875 
z"/>
<path fill="#00000F" opacity="1.000000" stroke="none" 
	d="
M37.279018,465.643524 
	C42.478195,465.662598 47.828175,466.096924 53.392696,466.886475 
	C48.214767,466.847382 42.822292,466.453064 37.279018,465.643524 
z"/>
<path fill="#000114" opacity="1.000000" stroke="none" 
	d="
M556.201599,466.856079 
	C560.792480,466.310638 565.867493,465.841736 571.394836,465.293060 
	C570.528259,465.810364 569.234863,466.842438 567.885742,466.921204 
	C564.164917,467.138245 560.420715,466.956604 556.201599,466.856079 
z"/>
<path fill="#0B1B2D" opacity="1.000000" stroke="none" 
	d="
M427.515137,499.850616 
	C429.401398,499.687225 431.286285,499.888428 433.588348,500.267029 
	C434.008118,500.620667 434.010681,500.796875 434.013275,500.973083 
	C431.846771,500.720459 429.680267,500.467834 427.515137,499.850616 
z"/>
<path fill="#071526" opacity="1.000000" stroke="none" 
	d="
M332.371216,457.196289 
	C330.330841,457.434875 328.284363,457.281372 325.910248,457.359009 
	C327.843445,457.328156 330.104279,457.066162 332.371216,457.196289 
z"/>
<path fill="#151C29" opacity="1.000000" stroke="none" 
	d="
M376.133575,500.129639 
	C376.860718,499.964325 377.584198,500.123901 378.659363,500.404419 
	C378.050629,500.501709 377.090302,500.478119 376.133575,500.129639 
z"/>
<path fill="#151C29" opacity="1.000000" stroke="none" 
	d="
M393.120789,457.535278 
	C392.891846,458.694916 392.297424,459.795471 391.421387,461.037964 
	C391.678314,459.945282 392.216797,458.710724 393.120789,457.535278 
z"/>
<path fill="#151C29" opacity="1.000000" stroke="none" 
	d="
M395.680420,456.407227 
	C395.345917,456.787964 394.754333,457.004211 393.880402,457.361572 
	C394.206482,457.082703 394.814911,456.662750 395.680420,456.407227 
z"/>
<path fill="#071526" opacity="1.000000" stroke="none" 
	d="
M335.586609,498.795044 
	C336.385376,498.741791 337.179932,499.065552 338.180420,499.637787 
	C337.451721,499.648193 336.517029,499.410126 335.586609,498.795044 
z"/>
<path fill="#151C29" opacity="1.000000" stroke="none" 
	d="
M402.676361,457.092102 
	C402.047546,457.189484 401.383331,456.993622 400.393372,456.676941 
	C400.925415,456.637024 401.783173,456.717926 402.676361,457.092102 
z"/>
<path fill="#050614" opacity="1.000000" stroke="none" 
	d="
M335.850098,485.893127 
	C335.467285,485.765503 335.105652,485.292267 334.664917,484.519592 
	C335.014313,484.662628 335.442810,485.105072 335.850098,485.893127 
z"/>
<path fill="#000114" opacity="1.000000" stroke="none" 
	d="
M554.114990,500.041107 
	C554.066956,499.569977 554.191467,499.257263 554.535461,498.815002 
	C554.599121,499.190155 554.443359,499.694855 554.114990,500.041107 
z"/>
<path fill="#050614" opacity="1.000000" stroke="none" 
	d="
M313.071655,479.812988 
	C313.168182,479.435547 313.616241,479.077576 314.329071,478.589874 
	C314.203644,478.917572 313.813416,479.375031 313.071655,479.812988 
z"/>
<path fill="#151C29" opacity="1.000000" stroke="none" 
	d="
M385.036560,498.719360 
	C384.933807,498.254181 385.143341,497.652039 385.615601,496.867798 
	C385.701843,497.317902 385.525330,497.950134 385.036560,498.719360 
z"/>
<path fill="#071526" opacity="1.000000" stroke="none" 
	d="
M332.677673,496.808289 
	C333.193695,496.750671 333.630371,497.013092 334.174866,497.506958 
	C333.721222,497.535065 333.159790,497.331726 332.677673,496.808289 
z"/>
<path fill="#071526" opacity="1.000000" stroke="none" 
	d="
M329.145630,493.129395 
	C329.511780,493.139526 329.868927,493.479279 330.359070,494.036133 
	C330.040283,493.988464 329.588501,493.723755 329.145630,493.129395 
z"/>
<path fill="#071526" opacity="1.000000" stroke="none" 
	d="
M327.224121,490.046112 
	C327.534485,490.249298 327.787445,490.785797 328.104919,491.630005 
	C327.835205,491.418304 327.500977,490.898865 327.224121,490.046112 
z"/>
<path fill="#313541" opacity="1.000000" stroke="none" 
	d="
M458.867737,481.937683 
	C458.527466,481.946075 458.161438,481.655182 457.702087,481.141266 
	C458.019836,481.158295 458.430939,481.398315 458.867737,481.937683 
z"/>
<path fill="#050614" opacity="1.000000" stroke="none" 
	d="
M338.759033,488.999847 
	C338.285400,489.096039 337.703796,488.877869 336.995056,488.371765 
	C337.462311,488.284393 338.056671,488.484955 338.759033,488.999847 
z"/>
<path fill="#050614" opacity="1.000000" stroke="none" 
	d="
M336.933746,487.800232 
	C336.560089,487.665894 336.203979,487.199646 335.784576,486.423035 
	C336.131317,486.564575 336.541290,487.016418 336.933746,487.800232 
z"/>
<path fill="#0B1B2D" opacity="1.000000" stroke="none" 
	d="
M433.877991,456.557129 
	C433.964996,456.668335 433.496582,456.750153 433.278198,456.656128 
	C433.282379,456.311676 433.526093,456.272949 433.877991,456.557129 
z"/>
<path fill="#313541" opacity="1.000000" stroke="none" 
	d="
M453.376373,476.072998 
	C453.063324,476.264252 452.867737,476.130737 452.706696,475.714417 
	C453.024475,475.397339 453.275330,475.502869 453.376373,476.072998 
z"/>
<path fill="#313541" opacity="1.000000" stroke="none" 
	d="
M454.300476,477.058411 
	C454.014465,477.242432 453.856110,477.145752 453.725891,476.817444 
	C453.699371,476.675415 454.094025,476.570862 454.094025,476.570862 
	C454.094025,476.570862 454.373474,476.867279 454.300476,477.058411 
z"/>
<path fill="#071526" opacity="1.000000" stroke="none" 
	d="
M434.208679,500.797913 
	C434.010681,500.796875 434.008118,500.620667 434.000122,500.180176 
	C433.994690,499.915894 434.033997,499.748383 434.110016,499.708252 
	C434.258728,499.986328 434.331421,500.304565 434.208679,500.797913 
z"/>
<path fill="#313541" opacity="1.000000" stroke="none" 
	d="
M455.186615,478.004517 
	C455.074768,478.137482 454.831207,477.938629 454.795593,477.867828 
	C454.759979,477.797028 455.059692,477.622040 455.059692,477.622040 
	C455.059692,477.622040 455.298462,477.871552 455.186615,478.004517 
z"/>
<path fill="#151C29" opacity="1.000000" stroke="none" 
	d="
M383.144958,500.316833 
	C383.014282,500.190155 383.387848,499.888916 383.622559,499.838776 
	C383.663422,500.006927 383.469513,500.225189 383.144958,500.316833 
z"/>
<path fill="#050614" opacity="1.000000" stroke="none" 
	d="
M314.870483,478.644104 
	C314.777893,478.365326 315.039398,477.995544 315.603760,477.460754 
	C315.679260,477.714905 315.451904,478.134033 314.870483,478.644104 
z"/>
<path fill="#313541" opacity="1.000000" stroke="none" 
	d="
M456.094116,478.940796 
	C455.960449,478.976562 455.958008,478.931915 455.931549,478.944885 
	C455.905090,478.957825 456.033600,478.712677 456.033600,478.712677 
	C456.033600,478.712677 456.227814,478.904999 456.094116,478.940796 
z"/>
<path fill="#071526" opacity="1.000000" stroke="none" 
	d="
M439.313538,474.944458 
	C439.602814,474.917206 439.900909,475.173126 440.139008,475.726501 
	C439.826782,475.758484 439.574554,475.493042 439.313538,474.944458 
z"/>
<path fill="#151C29" opacity="1.000000" stroke="none" 
	d="
M384.040283,499.778442 
	C383.958557,499.562378 384.142456,499.258484 384.575378,498.847290 
	C384.651550,499.056854 384.478729,499.373718 384.040283,499.778442 
z"/>
<path fill="#071526" opacity="1.000000" stroke="none" 
	d="
M334.298279,497.945221 
	C334.531311,497.700073 334.817505,497.803223 335.232117,498.156189 
	C335.053650,498.286621 334.717285,498.249115 334.298279,497.945221 
z"/>
<path fill="#071526" opacity="1.000000" stroke="none" 
	d="
M331.661957,495.847778 
	C331.952820,495.671631 332.106232,495.774506 332.279297,496.062805 
	C332.337341,496.190979 331.905884,496.407013 331.905884,496.407013 
	C331.905884,496.407013 331.562927,496.069489 331.661957,495.847778 
z"/>
<path fill="#071526" opacity="1.000000" stroke="none" 
	d="
M330.684631,494.871643 
	C330.981995,494.706818 331.134888,494.815613 331.304443,495.111572 
	C331.360901,495.242920 330.917603,495.430206 330.917603,495.430206 
	C330.917603,495.430206 330.579956,495.089386 330.684631,494.871643 
z"/>
<path fill="#151C29" opacity="1.000000" stroke="none" 
	d="
M403.546265,458.122864 
	C403.203339,458.295746 402.955505,458.088409 402.715240,457.547699 
	C402.947510,457.487854 403.253662,457.663940 403.546265,458.122864 
z"/>
<path fill="#071526" opacity="1.000000" stroke="none" 
	d="
M328.179443,492.095764 
	C328.392365,492.014038 328.709595,492.186188 329.120880,492.616333 
	C328.904541,492.699402 328.594116,492.524506 328.179443,492.095764 
z"/>
<path fill="#313541" opacity="1.000000" stroke="none" 
	d="
M457.113464,479.933716 
	C457.000641,479.981506 456.989441,479.931122 456.966217,479.950073 
	C456.942993,479.968994 457.226257,479.885956 457.113464,479.933716 
z"/>
<path fill="#0B1B2D" opacity="1.000000" stroke="none" 
	d="
M427.890778,456.851349 
	C428.006012,456.991760 427.940460,457.264313 427.807739,457.309204 
	C427.590027,457.138489 427.505035,456.922852 427.420074,456.707214 
	C427.538574,456.708466 427.657043,456.709686 427.890778,456.851349 
z"/>
<path fill="#313541" opacity="1.000000" stroke="none" 
	d="
M452.472168,475.069489 
	C452.222809,475.147888 451.952789,474.943512 451.602295,474.491852 
	C451.831696,474.425293 452.141602,474.605988 452.472168,475.069489 
z"/>
<path fill="#FFFCFC" opacity="1.000000" stroke="none" 
	d="
M184.843262,288.007080 
	C185.041580,302.154022 190.651108,313.681274 199.440567,323.709381 
	C206.685333,331.975098 214.226440,340.002533 221.971161,347.803009 
	C231.006332,356.903259 241.838425,362.599426 254.745621,364.474854 
	C268.724152,366.505859 279.118927,376.207336 281.371521,388.692932 
	C282.746216,396.312714 280.788910,403.001984 274.631226,407.919342 
	C268.563812,412.764587 262.054382,411.438171 255.864716,408.125122 
	C245.219009,402.426941 238.212723,393.756165 234.988647,381.989716 
	C233.632446,377.040253 232.205643,371.976135 229.864792,367.453888 
	C220.093521,348.576904 206.018692,333.224335 188.207794,321.926849 
	C180.703552,317.166901 171.478409,314.562012 162.676697,312.538239 
	C149.950897,309.612213 141.985916,302.788879 138.768448,290.078613 
	C135.098251,275.579895 143.052399,265.951721 157.989044,267.406006 
	C166.693100,268.253479 175.366348,267.448090 182.601807,262.759033 
	C203.050751,249.506821 219.589722,233.289703 221.297607,206.800278 
	C222.258408,191.898026 230.126480,181.519562 243.994400,176.171066 
	C254.842270,171.987305 266.438507,175.892578 273.267700,185.275467 
	C280.819366,195.651077 280.717041,209.494202 272.799713,219.697647 
	C266.630219,227.648560 258.491730,232.023712 248.303619,232.107956 
	C232.727188,232.236786 219.325424,237.319824 208.576294,248.921631 
	C205.185608,252.581284 201.384811,255.863327 197.741882,259.286438 
	C189.587769,266.948517 184.999771,276.228088 184.843262,288.007080 
z"/>
<path fill="#FFFDFC" opacity="1.000000" stroke="none" 
	d="
M316.780151,111.914047 
	C316.828766,107.886665 316.347656,104.099983 317.225342,100.659996 
	C319.978149,89.870750 329.593933,85.108742 339.669342,89.822426 
	C351.872864,95.531723 360.258026,104.754005 363.278412,118.317123 
	C364.142761,122.198654 365.113983,126.145355 366.720245,129.758041 
	C375.978149,150.580246 390.933960,166.628433 409.667480,179.153290 
	C417.523285,184.405518 426.665131,186.567596 436.174713,186.922302 
	C445.950378,187.286972 452.909668,191.932968 456.635101,201.042130 
	C457.762634,203.799210 458.538544,206.718628 459.271759,209.615250 
	C462.728821,223.272675 454.678925,233.240921 440.432404,233.099731 
	C436.112061,233.056915 431.716278,232.721329 427.483765,233.365524 
	C418.532104,234.728027 410.757294,238.747131 404.342651,245.247177 
	C400.481354,249.159882 396.701630,253.162170 392.690521,256.916138 
	C381.596497,267.299072 376.439850,280.123901 376.186096,295.205139 
	C375.900299,312.189789 359.921539,327.443207 343.649506,326.518860 
	C332.828308,325.904114 323.743378,318.995575 320.485168,308.903748 
	C317.219543,298.789001 320.965637,286.966034 329.787842,279.752533 
	C335.646240,274.962402 342.395660,272.415009 349.955292,272.080261 
	C363.680969,271.472534 375.556091,266.592957 385.224182,256.726074 
	C390.702820,251.134735 396.104767,245.466110 401.455017,239.751556 
	C414.098572,226.246933 416.634674,210.771454 409.078644,194.120697 
	C406.172821,187.717346 401.797882,181.811371 397.282806,176.347733 
	C390.713745,168.398529 383.456879,161.012909 376.411896,153.462952 
	C367.394287,143.799057 356.661713,137.583572 343.300476,135.570938 
	C329.814117,133.539459 320.618134,125.819450 316.780151,111.914047 
z"/>
<path fill="#092032" opacity="1.000000" stroke="none" 
	d="
M285.507141,472.925415 
	C284.705139,471.150635 284.281708,469.261841 283.732452,466.937378 
	C283.606598,466.501740 283.669281,466.544861 284.173981,466.689392 
	C292.524231,466.722900 300.369812,466.611938 308.215363,466.500977 
	C308.215363,466.500977 308.501923,466.340118 308.507751,466.682251 
	C308.943481,467.340637 309.373352,467.656921 309.803223,467.973267 
	C308.229248,468.979553 306.714539,470.720734 305.070099,470.853302 
	C300.273712,471.240082 295.418365,470.835083 290.601562,471.064545 
	C289.005493,471.140594 287.456360,472.200989 285.507141,472.925415 
z"/>
<path fill="#050614" opacity="1.000000" stroke="none" 
	d="
M307.910339,466.191589 
	C300.369812,466.611938 292.524231,466.722900 284.209656,466.676086 
	C288.585541,466.347107 293.429749,466.151184 298.275635,466.013611 
	C301.384247,465.925415 304.495331,465.923065 307.910339,466.191589 
z"/>
<path fill="#050614" opacity="1.000000" stroke="none" 
	d="
M309.831360,467.728333 
	C309.373352,467.656921 308.943481,467.340637 308.653564,466.757965 
	C309.148865,466.822205 309.504211,467.152832 309.831360,467.728333 
z"/>
<path fill="#FFFBFA" opacity="1.000000" stroke="none" 
	d="
M197.526428,138.486526 
	C190.765701,146.820068 182.784027,152.878204 172.923706,156.289124 
	C171.210129,156.881882 169.392548,157.462189 167.610641,157.502563 
	C164.830750,157.565567 163.535553,156.188431 164.976746,153.370834 
	C165.502106,152.343765 166.041885,151.249191 166.838562,150.447144 
	C177.833542,139.378174 188.800629,128.278717 199.998306,117.417412 
	C201.388458,116.069016 204.062973,116.044746 206.142349,115.406906 
	C206.213165,117.609558 207.025131,120.143250 206.216705,121.953201 
	C203.729645,127.521515 200.622681,132.812943 197.526428,138.486526 
z"/>
<path fill="#FFFAF9" opacity="1.000000" stroke="none" 
	d="
M394.706177,369.808655 
	C401.624908,357.230042 411.391541,348.376038 424.415588,343.198547 
	C425.797119,342.649353 427.254883,342.012970 428.695007,341.966431 
	C430.213959,341.917328 431.754242,342.526917 433.285156,342.848724 
	C432.942047,344.218018 432.980377,345.874695 432.198120,346.913208 
	C421.941559,360.529266 409.985474,372.481628 396.335907,382.693024 
	C395.218048,383.529297 393.337677,383.346313 391.811615,383.636932 
	C391.566559,382.069824 390.808716,380.366211 391.181976,378.963654 
	C391.986938,375.938812 393.373016,373.068604 394.706177,369.808655 
z"/>
</svg>